<svg width="783" height="97" viewBox="0 0 783 97" fill="none" xmlns="http://www.w3.org/2000/svg">
<g filter="url(#filter0_d_95_2668)">
<path d="M166.438 75.5C162.458 75.5 159.25 74.2604 156.812 71.7812C154.396 69.3021 153.188 65.8333 153.188 61.375V36C153.188 30.6667 154.24 26.5833 156.344 23.75C158.469 20.9167 161.917 19.5 166.688 19.5C169.292 19.5 171.604 19.9792 173.625 20.9375C175.667 21.8958 177.271 23.3333 178.438 25.25C179.604 27.1458 180.188 29.5417 180.188 32.4375V41.9375H169.25V33.8125C169.25 32.1667 169.042 31.0625 168.625 30.5C168.208 29.9167 167.562 29.625 166.688 29.625C165.667 29.625 164.979 30 164.625 30.75C164.271 31.4792 164.094 32.4583 164.094 33.6875V61.2188C164.094 62.7396 164.312 63.8125 164.75 64.4375C165.208 65.0625 165.854 65.375 166.688 65.375C167.625 65.375 168.281 64.9896 168.656 64.2188C169.052 63.4479 169.25 62.4479 169.25 61.2188V51.3125H180.312V61.7188C180.312 66.5521 179.094 70.0625 176.656 72.25C174.219 74.4167 170.812 75.5 166.438 75.5ZM184 75V20H194.938V39.6562H200.125V20H211.062V75H200.125V50.0625H194.938V75H184ZM215.438 75V20H226.062V75H215.438ZM243.25 75.5C239.271 75.5 236.062 74.2604 233.625 71.7812C231.208 69.3021 230 65.8333 230 61.375V36C230 30.6667 231.052 26.5833 233.156 23.75C235.281 20.9167 238.729 19.5 243.5 19.5C246.104 19.5 248.417 19.9792 250.438 20.9375C252.479 21.8958 254.083 23.3333 255.25 25.25C256.417 27.1458 257 29.5417 257 32.4375V41.9375H246.062V33.8125C246.062 32.1667 245.854 31.0625 245.438 30.5C245.021 29.9167 244.375 29.625 243.5 29.625C242.479 29.625 241.792 30 241.438 30.75C241.083 31.4792 240.906 32.4583 240.906 33.6875V61.2188C240.906 62.7396 241.125 63.8125 241.562 64.4375C242.021 65.0625 242.667 65.375 243.5 65.375C244.438 65.375 245.094 64.9896 245.469 64.2188C245.865 63.4479 246.062 62.4479 246.062 61.2188V51.3125H257.125V61.7188C257.125 66.5521 255.906 70.0625 253.469 72.25C251.031 74.4167 247.625 75.5 243.25 75.5ZM260.812 75V20H271.688V42.0312L276.812 20H287.875L281.719 45.1875L289.156 75H277.75L271.75 48.375V75H260.812ZM291.062 75V20H313.062V30.625H302.25V41.3438H312.625V51.6875H302.25V64.2812H313.781V75H291.062ZM317.438 75V20H328.75L333.812 46.3438V20H344.438V75H333.688L328.188 47.5V75H317.438ZM364.312 75V20H379.219C383.219 20 386.125 20.9792 387.938 22.9375C389.771 24.875 390.688 28.0833 390.688 32.5625V34.9688C390.688 37.5521 390.219 39.6458 389.281 41.25C388.365 42.8542 386.958 43.9062 385.062 44.4062C387.542 45.0312 389.198 46.5 390.031 48.8125C390.885 51.1042 391.312 53.9062 391.312 57.2188C391.312 60.7812 390.979 63.8958 390.312 66.5625C389.646 69.2292 388.438 71.3021 386.688 72.7812C384.938 74.2604 382.448 75 379.219 75H364.312ZM375.062 40.7188H377.312C378.333 40.7188 378.99 40.3229 379.281 39.5312C379.573 38.7396 379.719 37.7917 379.719 36.6875V31.1562C379.719 29.3854 378.938 28.5 377.375 28.5H375.062V40.7188ZM376.156 65.3125C379.01 65.3125 380.438 63.9583 380.438 61.25V54.375C380.438 52.8125 380.198 51.5833 379.719 50.6875C379.26 49.7708 378.385 49.3125 377.094 49.3125H375.062V65.25C375.521 65.2917 375.885 65.3125 376.156 65.3125ZM407.656 75.5C403.073 75.5 399.698 74.2188 397.531 71.6562C395.365 69.0729 394.281 65.2812 394.281 60.2812V20H404.969V59.8438C404.969 60.7604 405.021 61.6458 405.125 62.5C405.229 63.3333 405.469 64.0208 405.844 64.5625C406.219 65.1042 406.823 65.375 407.656 65.375C408.51 65.375 409.125 65.1146 409.5 64.5938C409.875 64.0521 410.104 63.3542 410.188 62.5C410.292 61.6458 410.344 60.7604 410.344 59.8438V20H421.031V60.2812C421.031 65.2812 419.948 69.0729 417.781 71.6562C415.615 74.2188 412.24 75.5 407.656 75.5ZM425.25 75V20H442.125C444.938 20 447.062 20.6458 448.5 21.9375C449.938 23.2083 450.896 25 451.375 27.3125C451.875 29.6042 452.125 32.3021 452.125 35.4062C452.125 38.4062 451.74 40.8021 450.969 42.5938C450.219 44.3854 448.792 45.625 446.688 46.3125C448.417 46.6667 449.625 47.5312 450.312 48.9062C451.021 50.2604 451.375 52.0208 451.375 54.1875V75H440.531V53.4688C440.531 51.8646 440.198 50.875 439.531 50.5C438.885 50.1042 437.833 49.9062 436.375 49.9062V75H425.25ZM436.438 40.375H439.094C440.615 40.375 441.375 38.7188 441.375 35.4062C441.375 33.2604 441.208 31.8542 440.875 31.1875C440.542 30.5208 439.917 30.1875 439 30.1875H436.438V40.375ZM467.094 75.5C459.24 75.5 455.312 69.875 455.312 58.625V34.9062C455.312 24.6354 459.812 19.5 468.812 19.5C472.521 19.5 475.365 20.25 477.344 21.75C479.323 23.2292 480.688 25.3958 481.438 28.25C482.188 31.1042 482.562 34.5833 482.562 38.6875H471.812V33.8125C471.812 32.625 471.646 31.6354 471.312 30.8438C471 30.0312 470.333 29.625 469.312 29.625C468.042 29.625 467.198 30.0521 466.781 30.9062C466.385 31.7604 466.188 32.6979 466.188 33.7188V60.375C466.188 61.8542 466.375 63.0625 466.75 64C467.146 64.9167 467.906 65.375 469.031 65.375C470.198 65.375 470.969 64.9167 471.344 64C471.74 63.0625 471.938 61.8333 471.938 60.3125V52.4688H469V42.9688H482.438V75H478.031L476.156 70.375C474.24 73.7917 471.219 75.5 467.094 75.5ZM486.812 75V20H508.812V30.625H498V41.3438H508.375V51.6875H498V64.2812H509.531V75H486.812ZM513.188 75V20H530.062C532.875 20 535 20.6458 536.438 21.9375C537.875 23.2083 538.833 25 539.312 27.3125C539.812 29.6042 540.062 32.3021 540.062 35.4062C540.062 38.4062 539.677 40.8021 538.906 42.5938C538.156 44.3854 536.729 45.625 534.625 46.3125C536.354 46.6667 537.562 47.5312 538.25 48.9062C538.958 50.2604 539.312 52.0208 539.312 54.1875V75H528.469V53.4688C528.469 51.8646 528.135 50.875 527.469 50.5C526.823 50.1042 525.771 49.9062 524.312 49.9062V75H513.188ZM524.375 40.375H527.031C528.552 40.375 529.312 38.7188 529.312 35.4062C529.312 33.2604 529.146 31.8542 528.812 31.1875C528.479 30.5208 527.854 30.1875 526.938 30.1875H524.375V40.375ZM556.75 75.5C551.729 75.5 548.104 74.25 545.875 71.75C543.667 69.25 542.562 65.2708 542.562 59.8125V54.4375H553.438V61.3125C553.438 62.5833 553.625 63.5833 554 64.3125C554.396 65.0208 555.073 65.375 556.031 65.375C557.031 65.375 557.719 65.0833 558.094 64.5C558.49 63.9167 558.688 62.9583 558.688 61.625C558.688 59.9375 558.521 58.5312 558.188 57.4062C557.854 56.2604 557.271 55.1771 556.438 54.1562C555.625 53.1146 554.49 51.9062 553.031 50.5312L548.094 45.8438C544.406 42.3646 542.562 38.3854 542.562 33.9062C542.562 29.2188 543.646 25.6458 545.812 23.1875C548 20.7292 551.156 19.5 555.281 19.5C560.323 19.5 563.896 20.8438 566 23.5312C568.125 26.2188 569.188 30.3021 569.188 35.7812H558V32C558 31.25 557.781 30.6667 557.344 30.25C556.927 29.8333 556.354 29.625 555.625 29.625C554.75 29.625 554.104 29.875 553.688 30.375C553.292 30.8542 553.094 31.4792 553.094 32.25C553.094 33.0208 553.302 33.8542 553.719 34.75C554.135 35.6458 554.958 36.6771 556.188 37.8438L562.531 43.9375C563.802 45.1458 564.969 46.4271 566.031 47.7812C567.094 49.1146 567.948 50.6771 568.594 52.4688C569.24 54.2396 569.562 56.4062 569.562 58.9688C569.562 64.1354 568.604 68.1875 566.688 71.125C564.792 74.0417 561.479 75.5 556.75 75.5Z" fill="white"/>
</g>
<g filter="url(#filter1_d_95_2668)">
<rect x="4" y="82" width="775" height="7" fill="#D9D9D9"/>
</g>
<defs>
<filter id="filter0_d_95_2668" x="149.188" y="19.5" width="424.375" height="64" filterUnits="userSpaceOnUse" color-interpolation-filters="sRGB">
<feFlood flood-opacity="0" result="BackgroundImageFix"/>
<feColorMatrix in="SourceAlpha" type="matrix" values="0 0 0 0 0 0 0 0 0 0 0 0 0 0 0 0 0 0 127 0" result="hardAlpha"/>
<feOffset dy="4"/>
<feGaussianBlur stdDeviation="2"/>
<feComposite in2="hardAlpha" operator="out"/>
<feColorMatrix type="matrix" values="0 0 0 0 0 0 0 0 0 0 0 0 0 0 0 0 0 0 0.25 0"/>
<feBlend mode="normal" in2="BackgroundImageFix" result="effect1_dropShadow_95_2668"/>
<feBlend mode="normal" in="SourceGraphic" in2="effect1_dropShadow_95_2668" result="shape"/>
</filter>
<filter id="filter1_d_95_2668" x="0" y="82" width="783" height="15" filterUnits="userSpaceOnUse" color-interpolation-filters="sRGB">
<feFlood flood-opacity="0" result="BackgroundImageFix"/>
<feColorMatrix in="SourceAlpha" type="matrix" values="0 0 0 0 0 0 0 0 0 0 0 0 0 0 0 0 0 0 127 0" result="hardAlpha"/>
<feOffset dy="4"/>
<feGaussianBlur stdDeviation="2"/>
<feComposite in2="hardAlpha" operator="out"/>
<feColorMatrix type="matrix" values="0 0 0 0 0 0 0 0 0 0 0 0 0 0 0 0 0 0 0.25 0"/>
<feBlend mode="normal" in2="BackgroundImageFix" result="effect1_dropShadow_95_2668"/>
<feBlend mode="normal" in="SourceGraphic" in2="effect1_dropShadow_95_2668" result="shape"/>
</filter>
</defs>
</svg>
