<svg width="783" height="97" viewBox="0 0 783 97" fill="none" xmlns="http://www.w3.org/2000/svg">
<g filter="url(#filter0_d_95_2712)">
<path d="M168.125 75.5C164.146 75.5 160.938 74.2604 158.5 71.7812C156.083 69.3021 154.875 65.8333 154.875 61.375V36C154.875 30.6667 155.927 26.5833 158.031 23.75C160.156 20.9167 163.604 19.5 168.375 19.5C170.979 19.5 173.292 19.9792 175.312 20.9375C177.354 21.8958 178.958 23.3333 180.125 25.25C181.292 27.1458 181.875 29.5417 181.875 32.4375V41.9375H170.938V33.8125C170.938 32.1667 170.729 31.0625 170.312 30.5C169.896 29.9167 169.25 29.625 168.375 29.625C167.354 29.625 166.667 30 166.312 30.75C165.958 31.4792 165.781 32.4583 165.781 33.6875V61.2188C165.781 62.7396 166 63.8125 166.438 64.4375C166.896 65.0625 167.542 65.375 168.375 65.375C169.312 65.375 169.969 64.9896 170.344 64.2188C170.74 63.4479 170.938 62.4479 170.938 61.2188V51.3125H182V61.7188C182 66.5521 180.781 70.0625 178.344 72.25C175.906 74.4167 172.5 75.5 168.125 75.5ZM185.688 75V20H196.625V39.6562H201.812V20H212.75V75H201.812V50.0625H196.625V75H185.688ZM217.125 75V20H227.75V75H217.125ZM244.938 75.5C240.958 75.5 237.75 74.2604 235.312 71.7812C232.896 69.3021 231.688 65.8333 231.688 61.375V36C231.688 30.6667 232.74 26.5833 234.844 23.75C236.969 20.9167 240.417 19.5 245.188 19.5C247.792 19.5 250.104 19.9792 252.125 20.9375C254.167 21.8958 255.771 23.3333 256.938 25.25C258.104 27.1458 258.688 29.5417 258.688 32.4375V41.9375H247.75V33.8125C247.75 32.1667 247.542 31.0625 247.125 30.5C246.708 29.9167 246.062 29.625 245.188 29.625C244.167 29.625 243.479 30 243.125 30.75C242.771 31.4792 242.594 32.4583 242.594 33.6875V61.2188C242.594 62.7396 242.812 63.8125 243.25 64.4375C243.708 65.0625 244.354 65.375 245.188 65.375C246.125 65.375 246.781 64.9896 247.156 64.2188C247.552 63.4479 247.75 62.4479 247.75 61.2188V51.3125H258.812V61.7188C258.812 66.5521 257.594 70.0625 255.156 72.25C252.719 74.4167 249.312 75.5 244.938 75.5ZM262.5 75V20H273.375V42.0312L278.5 20H289.562L283.406 45.1875L290.844 75H279.438L273.438 48.375V75H262.5ZM292.75 75V20H314.75V30.625H303.938V41.3438H314.312V51.6875H303.938V64.2812H315.469V75H292.75ZM319.125 75V20H330.438L335.5 46.3438V20H346.125V75H335.375L329.875 47.5V75H319.125ZM366 75V20H377.312L382.375 46.3438V20H393V75H382.25L376.75 47.5V75H366ZM410.594 75.5C406.01 75.5 402.635 74.2188 400.469 71.6562C398.302 69.0729 397.219 65.2812 397.219 60.2812V20H407.906V59.8438C407.906 60.7604 407.958 61.6458 408.062 62.5C408.167 63.3333 408.406 64.0208 408.781 64.5625C409.156 65.1042 409.76 65.375 410.594 65.375C411.448 65.375 412.062 65.1146 412.438 64.5938C412.812 64.0521 413.042 63.3542 413.125 62.5C413.229 61.6458 413.281 60.7604 413.281 59.8438V20H423.969V60.2812C423.969 65.2812 422.885 69.0729 420.719 71.6562C418.552 74.2188 415.177 75.5 410.594 75.5ZM439.531 75.5C431.677 75.5 427.75 69.875 427.75 58.625V34.9062C427.75 24.6354 432.25 19.5 441.25 19.5C444.958 19.5 447.802 20.25 449.781 21.75C451.76 23.2292 453.125 25.3958 453.875 28.25C454.625 31.1042 455 34.5833 455 38.6875H444.25V33.8125C444.25 32.625 444.083 31.6354 443.75 30.8438C443.438 30.0312 442.771 29.625 441.75 29.625C440.479 29.625 439.635 30.0521 439.219 30.9062C438.823 31.7604 438.625 32.6979 438.625 33.7188V60.375C438.625 61.8542 438.812 63.0625 439.188 64C439.583 64.9167 440.344 65.375 441.469 65.375C442.635 65.375 443.406 64.9167 443.781 64C444.177 63.0625 444.375 61.8333 444.375 60.3125V52.4688H441.438V42.9688H454.875V75H450.469L448.594 70.375C446.677 73.7917 443.656 75.5 439.531 75.5ZM470.594 75.5C462.74 75.5 458.812 69.875 458.812 58.625V34.9062C458.812 24.6354 463.312 19.5 472.312 19.5C476.021 19.5 478.865 20.25 480.844 21.75C482.823 23.2292 484.188 25.3958 484.938 28.25C485.688 31.1042 486.062 34.5833 486.062 38.6875H475.312V33.8125C475.312 32.625 475.146 31.6354 474.812 30.8438C474.5 30.0312 473.833 29.625 472.812 29.625C471.542 29.625 470.698 30.0521 470.281 30.9062C469.885 31.7604 469.688 32.6979 469.688 33.7188V60.375C469.688 61.8542 469.875 63.0625 470.25 64C470.646 64.9167 471.406 65.375 472.531 65.375C473.698 65.375 474.469 64.9167 474.844 64C475.24 63.0625 475.438 61.8333 475.438 60.3125V52.4688H472.5V42.9688H485.938V75H481.531L479.656 70.375C477.74 73.7917 474.719 75.5 470.594 75.5ZM490.312 75V20H512.312V30.625H501.5V41.3438H511.875V51.6875H501.5V64.2812H513.031V75H490.312ZM521.406 75V30.5625H514.875V20H538.938V30.5625H532.406V75H521.406ZM555.062 75.5C550.042 75.5 546.417 74.25 544.188 71.75C541.979 69.25 540.875 65.2708 540.875 59.8125V54.4375H551.75V61.3125C551.75 62.5833 551.938 63.5833 552.312 64.3125C552.708 65.0208 553.385 65.375 554.344 65.375C555.344 65.375 556.031 65.0833 556.406 64.5C556.802 63.9167 557 62.9583 557 61.625C557 59.9375 556.833 58.5312 556.5 57.4062C556.167 56.2604 555.583 55.1771 554.75 54.1562C553.938 53.1146 552.802 51.9062 551.344 50.5312L546.406 45.8438C542.719 42.3646 540.875 38.3854 540.875 33.9062C540.875 29.2188 541.958 25.6458 544.125 23.1875C546.312 20.7292 549.469 19.5 553.594 19.5C558.635 19.5 562.208 20.8438 564.312 23.5312C566.438 26.2188 567.5 30.3021 567.5 35.7812H556.312V32C556.312 31.25 556.094 30.6667 555.656 30.25C555.24 29.8333 554.667 29.625 553.938 29.625C553.062 29.625 552.417 29.875 552 30.375C551.604 30.8542 551.406 31.4792 551.406 32.25C551.406 33.0208 551.615 33.8542 552.031 34.75C552.448 35.6458 553.271 36.6771 554.5 37.8438L560.844 43.9375C562.115 45.1458 563.281 46.4271 564.344 47.7812C565.406 49.1146 566.26 50.6771 566.906 52.4688C567.552 54.2396 567.875 56.4062 567.875 58.9688C567.875 64.1354 566.917 68.1875 565 71.125C563.104 74.0417 559.792 75.5 555.062 75.5Z" fill="white"/>
</g>
<g filter="url(#filter1_d_95_2712)">
<rect x="4" y="82" width="775" height="7" fill="#D9D9D9"/>
</g>
<defs>
<filter id="filter0_d_95_2712" x="150.875" y="19.5" width="421" height="64" filterUnits="userSpaceOnUse" color-interpolation-filters="sRGB">
<feFlood flood-opacity="0" result="BackgroundImageFix"/>
<feColorMatrix in="SourceAlpha" type="matrix" values="0 0 0 0 0 0 0 0 0 0 0 0 0 0 0 0 0 0 127 0" result="hardAlpha"/>
<feOffset dy="4"/>
<feGaussianBlur stdDeviation="2"/>
<feComposite in2="hardAlpha" operator="out"/>
<feColorMatrix type="matrix" values="0 0 0 0 0 0 0 0 0 0 0 0 0 0 0 0 0 0 0.25 0"/>
<feBlend mode="normal" in2="BackgroundImageFix" result="effect1_dropShadow_95_2712"/>
<feBlend mode="normal" in="SourceGraphic" in2="effect1_dropShadow_95_2712" result="shape"/>
</filter>
<filter id="filter1_d_95_2712" x="0" y="82" width="783" height="15" filterUnits="userSpaceOnUse" color-interpolation-filters="sRGB">
<feFlood flood-opacity="0" result="BackgroundImageFix"/>
<feColorMatrix in="SourceAlpha" type="matrix" values="0 0 0 0 0 0 0 0 0 0 0 0 0 0 0 0 0 0 127 0" result="hardAlpha"/>
<feOffset dy="4"/>
<feGaussianBlur stdDeviation="2"/>
<feComposite in2="hardAlpha" operator="out"/>
<feColorMatrix type="matrix" values="0 0 0 0 0 0 0 0 0 0 0 0 0 0 0 0 0 0 0.25 0"/>
<feBlend mode="normal" in2="BackgroundImageFix" result="effect1_dropShadow_95_2712"/>
<feBlend mode="normal" in="SourceGraphic" in2="effect1_dropShadow_95_2712" result="shape"/>
</filter>
</defs>
</svg>
