<svg width="783" height="97" viewBox="0 0 783 97" fill="none" xmlns="http://www.w3.org/2000/svg">
<g filter="url(#filter0_d_95_2561)">
<path d="M176.188 75.5C172.208 75.5 169 74.2604 166.562 71.7812C164.146 69.3021 162.938 65.8333 162.938 61.375V36C162.938 30.6667 163.99 26.5833 166.094 23.75C168.219 20.9167 171.667 19.5 176.438 19.5C179.042 19.5 181.354 19.9792 183.375 20.9375C185.417 21.8958 187.021 23.3333 188.188 25.25C189.354 27.1458 189.938 29.5417 189.938 32.4375V41.9375H179V33.8125C179 32.1667 178.792 31.0625 178.375 30.5C177.958 29.9167 177.312 29.625 176.438 29.625C175.417 29.625 174.729 30 174.375 30.75C174.021 31.4792 173.844 32.4583 173.844 33.6875V61.2188C173.844 62.7396 174.062 63.8125 174.5 64.4375C174.958 65.0625 175.604 65.375 176.438 65.375C177.375 65.375 178.031 64.9896 178.406 64.2188C178.802 63.4479 179 62.4479 179 61.2188V51.3125H190.062V61.7188C190.062 66.5521 188.844 70.0625 186.406 72.25C183.969 74.4167 180.562 75.5 176.188 75.5ZM193.75 75V20H204.688V39.6562H209.875V20H220.812V75H209.875V50.0625H204.688V75H193.75ZM225.188 75V20H235.812V75H225.188ZM253 75.5C249.021 75.5 245.812 74.2604 243.375 71.7812C240.958 69.3021 239.75 65.8333 239.75 61.375V36C239.75 30.6667 240.802 26.5833 242.906 23.75C245.031 20.9167 248.479 19.5 253.25 19.5C255.854 19.5 258.167 19.9792 260.188 20.9375C262.229 21.8958 263.833 23.3333 265 25.25C266.167 27.1458 266.75 29.5417 266.75 32.4375V41.9375H255.812V33.8125C255.812 32.1667 255.604 31.0625 255.188 30.5C254.771 29.9167 254.125 29.625 253.25 29.625C252.229 29.625 251.542 30 251.188 30.75C250.833 31.4792 250.656 32.4583 250.656 33.6875V61.2188C250.656 62.7396 250.875 63.8125 251.312 64.4375C251.771 65.0625 252.417 65.375 253.25 65.375C254.188 65.375 254.844 64.9896 255.219 64.2188C255.615 63.4479 255.812 62.4479 255.812 61.2188V51.3125H266.875V61.7188C266.875 66.5521 265.656 70.0625 263.219 72.25C260.781 74.4167 257.375 75.5 253 75.5ZM270.562 75V20H281.438V42.0312L286.562 20H297.625L291.469 45.1875L298.906 75H287.5L281.5 48.375V75H270.562ZM300.812 75V20H322.812V30.625H312V41.3438H322.375V51.6875H312V64.2812H323.531V75H300.812ZM327.188 75V20H338.5L343.562 46.3438V20H354.188V75H343.438L337.938 47.5V75H327.188ZM374.062 75V20H396.062V30.7188H385.125V39.4688H395.5V50.0625H385.125V75H374.062ZM399.125 75V20H409.75V75H399.125ZM414.125 75V20H425.438L430.5 46.3438V20H441.125V75H430.375L424.875 47.5V75H414.125ZM457.344 75.5C449.49 75.5 445.562 69.875 445.562 58.625V34.9062C445.562 24.6354 450.062 19.5 459.062 19.5C462.771 19.5 465.615 20.25 467.594 21.75C469.573 23.2292 470.938 25.3958 471.688 28.25C472.438 31.1042 472.812 34.5833 472.812 38.6875H462.062V33.8125C462.062 32.625 461.896 31.6354 461.562 30.8438C461.25 30.0312 460.583 29.625 459.562 29.625C458.292 29.625 457.448 30.0521 457.031 30.9062C456.635 31.7604 456.438 32.6979 456.438 33.7188V60.375C456.438 61.8542 456.625 63.0625 457 64C457.396 64.9167 458.156 65.375 459.281 65.375C460.448 65.375 461.219 64.9167 461.594 64C461.99 63.0625 462.188 61.8333 462.188 60.3125V52.4688H459.25V42.9688H472.688V75H468.281L466.406 70.375C464.49 73.7917 461.469 75.5 457.344 75.5ZM477.062 75V20H499.062V30.625H488.25V41.3438H498.625V51.6875H488.25V64.2812H499.781V75H477.062ZM503.438 75V20H520.312C523.125 20 525.25 20.6458 526.688 21.9375C528.125 23.2083 529.083 25 529.562 27.3125C530.062 29.6042 530.312 32.3021 530.312 35.4062C530.312 38.4062 529.927 40.8021 529.156 42.5938C528.406 44.3854 526.979 45.625 524.875 46.3125C526.604 46.6667 527.812 47.5312 528.5 48.9062C529.208 50.2604 529.562 52.0208 529.562 54.1875V75H518.719V53.4688C518.719 51.8646 518.385 50.875 517.719 50.5C517.073 50.1042 516.021 49.9062 514.562 49.9062V75H503.438ZM514.625 40.375H517.281C518.802 40.375 519.562 38.7188 519.562 35.4062C519.562 33.2604 519.396 31.8542 519.062 31.1875C518.729 30.5208 518.104 30.1875 517.188 30.1875H514.625V40.375ZM547 75.5C541.979 75.5 538.354 74.25 536.125 71.75C533.917 69.25 532.812 65.2708 532.812 59.8125V54.4375H543.688V61.3125C543.688 62.5833 543.875 63.5833 544.25 64.3125C544.646 65.0208 545.323 65.375 546.281 65.375C547.281 65.375 547.969 65.0833 548.344 64.5C548.74 63.9167 548.938 62.9583 548.938 61.625C548.938 59.9375 548.771 58.5312 548.438 57.4062C548.104 56.2604 547.521 55.1771 546.688 54.1562C545.875 53.1146 544.74 51.9062 543.281 50.5312L538.344 45.8438C534.656 42.3646 532.812 38.3854 532.812 33.9062C532.812 29.2188 533.896 25.6458 536.062 23.1875C538.25 20.7292 541.406 19.5 545.531 19.5C550.573 19.5 554.146 20.8438 556.25 23.5312C558.375 26.2188 559.438 30.3021 559.438 35.7812H548.25V32C548.25 31.25 548.031 30.6667 547.594 30.25C547.177 29.8333 546.604 29.625 545.875 29.625C545 29.625 544.354 29.875 543.938 30.375C543.542 30.8542 543.344 31.4792 543.344 32.25C543.344 33.0208 543.552 33.8542 543.969 34.75C544.385 35.6458 545.208 36.6771 546.438 37.8438L552.781 43.9375C554.052 45.1458 555.219 46.4271 556.281 47.7812C557.344 49.1146 558.198 50.6771 558.844 52.4688C559.49 54.2396 559.812 56.4062 559.812 58.9688C559.812 64.1354 558.854 68.1875 556.938 71.125C555.042 74.0417 551.729 75.5 547 75.5Z" fill="white"/>
</g>
<g filter="url(#filter1_d_95_2561)">
<rect x="4" y="82" width="775" height="7" fill="#D9D9D9"/>
</g>
<defs>
<filter id="filter0_d_95_2561" x="158.938" y="19.5" width="404.875" height="64" filterUnits="userSpaceOnUse" color-interpolation-filters="sRGB">
<feFlood flood-opacity="0" result="BackgroundImageFix"/>
<feColorMatrix in="SourceAlpha" type="matrix" values="0 0 0 0 0 0 0 0 0 0 0 0 0 0 0 0 0 0 127 0" result="hardAlpha"/>
<feOffset dy="4"/>
<feGaussianBlur stdDeviation="2"/>
<feComposite in2="hardAlpha" operator="out"/>
<feColorMatrix type="matrix" values="0 0 0 0 0 0 0 0 0 0 0 0 0 0 0 0 0 0 0.25 0"/>
<feBlend mode="normal" in2="BackgroundImageFix" result="effect1_dropShadow_95_2561"/>
<feBlend mode="normal" in="SourceGraphic" in2="effect1_dropShadow_95_2561" result="shape"/>
</filter>
<filter id="filter1_d_95_2561" x="0" y="82" width="783" height="15" filterUnits="userSpaceOnUse" color-interpolation-filters="sRGB">
<feFlood flood-opacity="0" result="BackgroundImageFix"/>
<feColorMatrix in="SourceAlpha" type="matrix" values="0 0 0 0 0 0 0 0 0 0 0 0 0 0 0 0 0 0 127 0" result="hardAlpha"/>
<feOffset dy="4"/>
<feGaussianBlur stdDeviation="2"/>
<feComposite in2="hardAlpha" operator="out"/>
<feColorMatrix type="matrix" values="0 0 0 0 0 0 0 0 0 0 0 0 0 0 0 0 0 0 0.25 0"/>
<feBlend mode="normal" in2="BackgroundImageFix" result="effect1_dropShadow_95_2561"/>
<feBlend mode="normal" in="SourceGraphic" in2="effect1_dropShadow_95_2561" result="shape"/>
</filter>
</defs>
</svg>
