<svg width="783" height="97" viewBox="0 0 783 97" fill="none" xmlns="http://www.w3.org/2000/svg">
<g filter="url(#filter0_d_95_2560)">
<path d="M193.844 75V20H215.844V30.7188H204.906V39.4688H215.281V50.0625H204.906V75H193.844ZM219.406 75V20H236.281C239.094 20 241.219 20.6458 242.656 21.9375C244.094 23.2083 245.052 25 245.531 27.3125C246.031 29.6042 246.281 32.3021 246.281 35.4062C246.281 38.4062 245.896 40.8021 245.125 42.5938C244.375 44.3854 242.948 45.625 240.844 46.3125C242.573 46.6667 243.781 47.5312 244.469 48.9062C245.177 50.2604 245.531 52.0208 245.531 54.1875V75H234.688V53.4688C234.688 51.8646 234.354 50.875 233.688 50.5C233.042 50.1042 231.99 49.9062 230.531 49.9062V75H219.406ZM230.594 40.375H233.25C234.771 40.375 235.531 38.7188 235.531 35.4062C235.531 33.2604 235.365 31.8542 235.031 31.1875C234.698 30.5208 234.073 30.1875 233.156 30.1875H230.594V40.375ZM249.406 75V20H260.031V75H249.406ZM264.406 75V20H286.406V30.625H275.594V41.3438H285.969V51.6875H275.594V64.2812H287.125V75H264.406ZM290.781 75V20H305.906C309.865 20 312.844 21.1042 314.844 23.3125C316.844 25.5 317.844 28.7083 317.844 32.9375V58.6875C317.844 63.8958 316.927 67.9167 315.094 70.75C313.281 73.5833 310.094 75 305.531 75H290.781ZM301.844 65.2812H303.75C305.771 65.2812 306.781 64.3021 306.781 62.3438V33.9688C306.781 32.1354 306.531 30.9583 306.031 30.4375C305.552 29.8958 304.562 29.625 303.062 29.625H301.844V65.2812ZM350.156 75.5C346.177 75.5 342.969 74.2604 340.531 71.7812C338.115 69.3021 336.906 65.8333 336.906 61.375V36C336.906 30.6667 337.958 26.5833 340.062 23.75C342.188 20.9167 345.635 19.5 350.406 19.5C353.01 19.5 355.323 19.9792 357.344 20.9375C359.385 21.8958 360.99 23.3333 362.156 25.25C363.323 27.1458 363.906 29.5417 363.906 32.4375V41.9375H352.969V33.8125C352.969 32.1667 352.76 31.0625 352.344 30.5C351.927 29.9167 351.281 29.625 350.406 29.625C349.385 29.625 348.698 30 348.344 30.75C347.99 31.4792 347.812 32.4583 347.812 33.6875V61.2188C347.812 62.7396 348.031 63.8125 348.469 64.4375C348.927 65.0625 349.573 65.375 350.406 65.375C351.344 65.375 352 64.9896 352.375 64.2188C352.771 63.4479 352.969 62.4479 352.969 61.2188V51.3125H364.031V61.7188C364.031 66.5521 362.812 70.0625 360.375 72.25C357.938 74.4167 354.531 75.5 350.156 75.5ZM367.719 75V20H378.656V39.6562H383.844V20H394.781V75H383.844V50.0625H378.656V75H367.719ZM399.156 75V20H409.781V75H399.156ZM426.969 75.5C422.99 75.5 419.781 74.2604 417.344 71.7812C414.927 69.3021 413.719 65.8333 413.719 61.375V36C413.719 30.6667 414.771 26.5833 416.875 23.75C419 20.9167 422.448 19.5 427.219 19.5C429.823 19.5 432.135 19.9792 434.156 20.9375C436.198 21.8958 437.802 23.3333 438.969 25.25C440.135 27.1458 440.719 29.5417 440.719 32.4375V41.9375H429.781V33.8125C429.781 32.1667 429.573 31.0625 429.156 30.5C428.74 29.9167 428.094 29.625 427.219 29.625C426.198 29.625 425.51 30 425.156 30.75C424.802 31.4792 424.625 32.4583 424.625 33.6875V61.2188C424.625 62.7396 424.844 63.8125 425.281 64.4375C425.74 65.0625 426.385 65.375 427.219 65.375C428.156 65.375 428.812 64.9896 429.188 64.2188C429.583 63.4479 429.781 62.4479 429.781 61.2188V51.3125H440.844V61.7188C440.844 66.5521 439.625 70.0625 437.188 72.25C434.75 74.4167 431.344 75.5 426.969 75.5ZM444.531 75V20H455.406V42.0312L460.531 20H471.594L465.438 45.1875L472.875 75H461.469L455.469 48.375V75H444.531ZM474.781 75V20H496.781V30.625H485.969V41.3438H496.344V51.6875H485.969V64.2812H497.5V75H474.781ZM501.156 75V20H512.469L517.531 46.3438V20H528.156V75H517.406L511.906 47.5V75H501.156Z" fill="white"/>
</g>
<g filter="url(#filter1_d_95_2560)">
<rect x="4" y="82" width="775" height="7" fill="#D9D9D9"/>
</g>
<defs>
<filter id="filter0_d_95_2560" x="189.844" y="19.5" width="342.312" height="64" filterUnits="userSpaceOnUse" color-interpolation-filters="sRGB">
<feFlood flood-opacity="0" result="BackgroundImageFix"/>
<feColorMatrix in="SourceAlpha" type="matrix" values="0 0 0 0 0 0 0 0 0 0 0 0 0 0 0 0 0 0 127 0" result="hardAlpha"/>
<feOffset dy="4"/>
<feGaussianBlur stdDeviation="2"/>
<feComposite in2="hardAlpha" operator="out"/>
<feColorMatrix type="matrix" values="0 0 0 0 0 0 0 0 0 0 0 0 0 0 0 0 0 0 0.25 0"/>
<feBlend mode="normal" in2="BackgroundImageFix" result="effect1_dropShadow_95_2560"/>
<feBlend mode="normal" in="SourceGraphic" in2="effect1_dropShadow_95_2560" result="shape"/>
</filter>
<filter id="filter1_d_95_2560" x="0" y="82" width="783" height="15" filterUnits="userSpaceOnUse" color-interpolation-filters="sRGB">
<feFlood flood-opacity="0" result="BackgroundImageFix"/>
<feColorMatrix in="SourceAlpha" type="matrix" values="0 0 0 0 0 0 0 0 0 0 0 0 0 0 0 0 0 0 127 0" result="hardAlpha"/>
<feOffset dy="4"/>
<feGaussianBlur stdDeviation="2"/>
<feComposite in2="hardAlpha" operator="out"/>
<feColorMatrix type="matrix" values="0 0 0 0 0 0 0 0 0 0 0 0 0 0 0 0 0 0 0.25 0"/>
<feBlend mode="normal" in2="BackgroundImageFix" result="effect1_dropShadow_95_2560"/>
<feBlend mode="normal" in="SourceGraphic" in2="effect1_dropShadow_95_2560" result="shape"/>
</filter>
</defs>
</svg>
