<svg width="783" height="97" viewBox="0 0 783 97" fill="none" xmlns="http://www.w3.org/2000/svg">
<g filter="url(#filter0_d_95_2859)">
<path d="M234.688 75.5C226.833 75.5 222.906 69.875 222.906 58.625V34.9062C222.906 24.6354 227.406 19.5 236.406 19.5C240.115 19.5 242.958 20.25 244.938 21.75C246.917 23.2292 248.281 25.3958 249.031 28.25C249.781 31.1042 250.156 34.5833 250.156 38.6875H239.406V33.8125C239.406 32.625 239.24 31.6354 238.906 30.8438C238.594 30.0312 237.927 29.625 236.906 29.625C235.635 29.625 234.792 30.0521 234.375 30.9062C233.979 31.7604 233.781 32.6979 233.781 33.7188V60.375C233.781 61.8542 233.969 63.0625 234.344 64C234.74 64.9167 235.5 65.375 236.625 65.375C237.792 65.375 238.562 64.9167 238.938 64C239.333 63.0625 239.531 61.8333 239.531 60.3125V52.4688H236.594V42.9688H250.031V75H245.625L243.75 70.375C241.833 73.7917 238.812 75.5 234.688 75.5ZM252.906 75L258.219 20H276.875L282.094 75H271.688L270.906 66.125H264.281L263.594 75H252.906ZM265.062 57.3438H270.062L267.656 29.375H267.156L265.062 57.3438ZM285.469 75V20H302.344C305.156 20 307.281 20.6458 308.719 21.9375C310.156 23.2083 311.115 25 311.594 27.3125C312.094 29.6042 312.344 32.3021 312.344 35.4062C312.344 38.4062 311.958 40.8021 311.188 42.5938C310.438 44.3854 309.01 45.625 306.906 46.3125C308.635 46.6667 309.844 47.5312 310.531 48.9062C311.24 50.2604 311.594 52.0208 311.594 54.1875V75H300.75V53.4688C300.75 51.8646 300.417 50.875 299.75 50.5C299.104 50.1042 298.052 49.9062 296.594 49.9062V75H285.469ZM296.656 40.375H299.312C300.833 40.375 301.594 38.7188 301.594 35.4062C301.594 33.2604 301.427 31.8542 301.094 31.1875C300.76 30.5208 300.135 30.1875 299.219 30.1875H296.656V40.375ZM322.625 75V56.9062L313.844 20H324.75L327.812 38.625L330.875 20H341.75L333 56.9062V75H322.625ZM359.531 75V20H374.656C378.615 20 381.594 21.1042 383.594 23.3125C385.594 25.5 386.594 28.7083 386.594 32.9375V58.6875C386.594 63.8958 385.677 67.9167 383.844 70.75C382.031 73.5833 378.844 75 374.281 75H359.531ZM370.594 65.2812H372.5C374.521 65.2812 375.531 64.3021 375.531 62.3438V33.9688C375.531 32.1354 375.281 30.9583 374.781 30.4375C374.302 29.8958 373.312 29.625 371.812 29.625H370.594V65.2812ZM391.094 75V20H413.094V30.625H402.281V41.3438H412.656V51.6875H402.281V64.2812H413.812V75H391.094ZM415.969 75L421.281 20H439.938L445.156 75H434.75L433.969 66.125H427.344L426.656 75H415.969ZM428.125 57.3438H433.125L430.719 29.375H430.219L428.125 57.3438ZM448.531 75V20H459.531V65.625H470.844V75H448.531ZM487.031 75.5C482.01 75.5 478.385 74.25 476.156 71.75C473.948 69.25 472.844 65.2708 472.844 59.8125V54.4375H483.719V61.3125C483.719 62.5833 483.906 63.5833 484.281 64.3125C484.677 65.0208 485.354 65.375 486.312 65.375C487.312 65.375 488 65.0833 488.375 64.5C488.771 63.9167 488.969 62.9583 488.969 61.625C488.969 59.9375 488.802 58.5312 488.469 57.4062C488.135 56.2604 487.552 55.1771 486.719 54.1562C485.906 53.1146 484.771 51.9062 483.312 50.5312L478.375 45.8438C474.688 42.3646 472.844 38.3854 472.844 33.9062C472.844 29.2188 473.927 25.6458 476.094 23.1875C478.281 20.7292 481.438 19.5 485.562 19.5C490.604 19.5 494.177 20.8438 496.281 23.5312C498.406 26.2188 499.469 30.3021 499.469 35.7812H488.281V32C488.281 31.25 488.062 30.6667 487.625 30.25C487.208 29.8333 486.635 29.625 485.906 29.625C485.031 29.625 484.385 29.875 483.969 30.375C483.573 30.8542 483.375 31.4792 483.375 32.25C483.375 33.0208 483.583 33.8542 484 34.75C484.417 35.6458 485.24 36.6771 486.469 37.8438L492.812 43.9375C494.083 45.1458 495.25 46.4271 496.312 47.7812C497.375 49.1146 498.229 50.6771 498.875 52.4688C499.521 54.2396 499.844 56.4062 499.844 58.9688C499.844 64.1354 498.885 68.1875 496.969 71.125C495.073 74.0417 491.76 75.5 487.031 75.5Z" fill="white"/>
</g>
<g filter="url(#filter1_d_95_2859)">
<rect x="4" y="82" width="775" height="7" fill="#D9D9D9"/>
</g>
<defs>
<filter id="filter0_d_95_2859" x="218.906" y="19.5" width="284.938" height="64" filterUnits="userSpaceOnUse" color-interpolation-filters="sRGB">
<feFlood flood-opacity="0" result="BackgroundImageFix"/>
<feColorMatrix in="SourceAlpha" type="matrix" values="0 0 0 0 0 0 0 0 0 0 0 0 0 0 0 0 0 0 127 0" result="hardAlpha"/>
<feOffset dy="4"/>
<feGaussianBlur stdDeviation="2"/>
<feComposite in2="hardAlpha" operator="out"/>
<feColorMatrix type="matrix" values="0 0 0 0 0 0 0 0 0 0 0 0 0 0 0 0 0 0 0.25 0"/>
<feBlend mode="normal" in2="BackgroundImageFix" result="effect1_dropShadow_95_2859"/>
<feBlend mode="normal" in="SourceGraphic" in2="effect1_dropShadow_95_2859" result="shape"/>
</filter>
<filter id="filter1_d_95_2859" x="0" y="82" width="783" height="15" filterUnits="userSpaceOnUse" color-interpolation-filters="sRGB">
<feFlood flood-opacity="0" result="BackgroundImageFix"/>
<feColorMatrix in="SourceAlpha" type="matrix" values="0 0 0 0 0 0 0 0 0 0 0 0 0 0 0 0 0 0 127 0" result="hardAlpha"/>
<feOffset dy="4"/>
<feGaussianBlur stdDeviation="2"/>
<feComposite in2="hardAlpha" operator="out"/>
<feColorMatrix type="matrix" values="0 0 0 0 0 0 0 0 0 0 0 0 0 0 0 0 0 0 0.25 0"/>
<feBlend mode="normal" in2="BackgroundImageFix" result="effect1_dropShadow_95_2859"/>
<feBlend mode="normal" in="SourceGraphic" in2="effect1_dropShadow_95_2859" result="shape"/>
</filter>
</defs>
</svg>
