<svg width="783" height="97" viewBox="0 0 783 97" fill="none" xmlns="http://www.w3.org/2000/svg">
<g filter="url(#filter0_d_95_2803)">
<path d="M236.25 75.5C231.229 75.5 227.604 74.25 225.375 71.75C223.167 69.25 222.062 65.2708 222.062 59.8125V54.4375H232.938V61.3125C232.938 62.5833 233.125 63.5833 233.5 64.3125C233.896 65.0208 234.573 65.375 235.531 65.375C236.531 65.375 237.219 65.0833 237.594 64.5C237.99 63.9167 238.188 62.9583 238.188 61.625C238.188 59.9375 238.021 58.5312 237.688 57.4062C237.354 56.2604 236.771 55.1771 235.938 54.1562C235.125 53.1146 233.99 51.9062 232.531 50.5312L227.594 45.8438C223.906 42.3646 222.062 38.3854 222.062 33.9062C222.062 29.2188 223.146 25.6458 225.312 23.1875C227.5 20.7292 230.656 19.5 234.781 19.5C239.823 19.5 243.396 20.8438 245.5 23.5312C247.625 26.2188 248.688 30.3021 248.688 35.7812H237.5V32C237.5 31.25 237.281 30.6667 236.844 30.25C236.427 29.8333 235.854 29.625 235.125 29.625C234.25 29.625 233.604 29.875 233.188 30.375C232.792 30.8542 232.594 31.4792 232.594 32.25C232.594 33.0208 232.802 33.8542 233.219 34.75C233.635 35.6458 234.458 36.6771 235.688 37.8438L242.031 43.9375C243.302 45.1458 244.469 46.4271 245.531 47.7812C246.594 49.1146 247.448 50.6771 248.094 52.4688C248.74 54.2396 249.062 56.4062 249.062 58.9688C249.062 64.1354 248.104 68.1875 246.188 71.125C244.292 74.0417 240.979 75.5 236.25 75.5ZM252.25 75V20H262.875V75H252.25ZM267.25 75V20H282.375C286.333 20 289.312 21.1042 291.312 23.3125C293.312 25.5 294.312 28.7083 294.312 32.9375V58.6875C294.312 63.8958 293.396 67.9167 291.562 70.75C289.75 73.5833 286.562 75 282 75H267.25ZM278.312 65.2812H280.219C282.24 65.2812 283.25 64.3021 283.25 62.3438V33.9688C283.25 32.1354 283 30.9583 282.5 30.4375C282.021 29.8958 281.031 29.625 279.531 29.625H278.312V65.2812ZM298.812 75V20H320.812V30.625H310V41.3438H320.375V51.6875H310V64.2812H321.531V75H298.812ZM340.188 75V20H355.312C359.271 20 362.25 21.1042 364.25 23.3125C366.25 25.5 367.25 28.7083 367.25 32.9375V58.6875C367.25 63.8958 366.333 67.9167 364.5 70.75C362.688 73.5833 359.5 75 354.938 75H340.188ZM351.25 65.2812H353.156C355.177 65.2812 356.188 64.3021 356.188 62.3438V33.9688C356.188 32.1354 355.938 30.9583 355.438 30.4375C354.958 29.8958 353.969 29.625 352.469 29.625H351.25V65.2812ZM371.25 75V20H381.875V75H371.25ZM399.312 75.5C394.292 75.5 390.667 74.25 388.438 71.75C386.229 69.25 385.125 65.2708 385.125 59.8125V54.4375H396V61.3125C396 62.5833 396.188 63.5833 396.562 64.3125C396.958 65.0208 397.635 65.375 398.594 65.375C399.594 65.375 400.281 65.0833 400.656 64.5C401.052 63.9167 401.25 62.9583 401.25 61.625C401.25 59.9375 401.083 58.5312 400.75 57.4062C400.417 56.2604 399.833 55.1771 399 54.1562C398.188 53.1146 397.052 51.9062 395.594 50.5312L390.656 45.8438C386.969 42.3646 385.125 38.3854 385.125 33.9062C385.125 29.2188 386.208 25.6458 388.375 23.1875C390.562 20.7292 393.719 19.5 397.844 19.5C402.885 19.5 406.458 20.8438 408.562 23.5312C410.688 26.2188 411.75 30.3021 411.75 35.7812H400.562V32C400.562 31.25 400.344 30.6667 399.906 30.25C399.49 29.8333 398.917 29.625 398.188 29.625C397.312 29.625 396.667 29.875 396.25 30.375C395.854 30.8542 395.656 31.4792 395.656 32.25C395.656 33.0208 395.865 33.8542 396.281 34.75C396.698 35.6458 397.521 36.6771 398.75 37.8438L405.094 43.9375C406.365 45.1458 407.531 46.4271 408.594 47.7812C409.656 49.1146 410.51 50.6771 411.156 52.4688C411.802 54.2396 412.125 56.4062 412.125 58.9688C412.125 64.1354 411.167 68.1875 409.25 71.125C407.354 74.0417 404.042 75.5 399.312 75.5ZM415.812 75V20H426.75V39.6562H431.938V20H442.875V75H431.938V50.0625H426.75V75H415.812ZM447.75 75V20H469.75V30.625H458.938V41.3438H469.312V51.6875H458.938V64.2812H470.469V75H447.75ZM487.188 75.5C482.167 75.5 478.542 74.25 476.312 71.75C474.104 69.25 473 65.2708 473 59.8125V54.4375H483.875V61.3125C483.875 62.5833 484.062 63.5833 484.438 64.3125C484.833 65.0208 485.51 65.375 486.469 65.375C487.469 65.375 488.156 65.0833 488.531 64.5C488.927 63.9167 489.125 62.9583 489.125 61.625C489.125 59.9375 488.958 58.5312 488.625 57.4062C488.292 56.2604 487.708 55.1771 486.875 54.1562C486.062 53.1146 484.927 51.9062 483.469 50.5312L478.531 45.8438C474.844 42.3646 473 38.3854 473 33.9062C473 29.2188 474.083 25.6458 476.25 23.1875C478.438 20.7292 481.594 19.5 485.719 19.5C490.76 19.5 494.333 20.8438 496.438 23.5312C498.562 26.2188 499.625 30.3021 499.625 35.7812H488.438V32C488.438 31.25 488.219 30.6667 487.781 30.25C487.365 29.8333 486.792 29.625 486.062 29.625C485.188 29.625 484.542 29.875 484.125 30.375C483.729 30.8542 483.531 31.4792 483.531 32.25C483.531 33.0208 483.74 33.8542 484.156 34.75C484.573 35.6458 485.396 36.6771 486.625 37.8438L492.969 43.9375C494.24 45.1458 495.406 46.4271 496.469 47.7812C497.531 49.1146 498.385 50.6771 499.031 52.4688C499.677 54.2396 500 56.4062 500 58.9688C500 64.1354 499.042 68.1875 497.125 71.125C495.229 74.0417 491.917 75.5 487.188 75.5Z" fill="white"/>
</g>
<g filter="url(#filter1_d_95_2803)">
<rect x="4" y="82" width="775" height="7" fill="#D9D9D9"/>
</g>
<defs>
<filter id="filter0_d_95_2803" x="218.062" y="19.5" width="285.938" height="64" filterUnits="userSpaceOnUse" color-interpolation-filters="sRGB">
<feFlood flood-opacity="0" result="BackgroundImageFix"/>
<feColorMatrix in="SourceAlpha" type="matrix" values="0 0 0 0 0 0 0 0 0 0 0 0 0 0 0 0 0 0 127 0" result="hardAlpha"/>
<feOffset dy="4"/>
<feGaussianBlur stdDeviation="2"/>
<feComposite in2="hardAlpha" operator="out"/>
<feColorMatrix type="matrix" values="0 0 0 0 0 0 0 0 0 0 0 0 0 0 0 0 0 0 0.25 0"/>
<feBlend mode="normal" in2="BackgroundImageFix" result="effect1_dropShadow_95_2803"/>
<feBlend mode="normal" in="SourceGraphic" in2="effect1_dropShadow_95_2803" result="shape"/>
</filter>
<filter id="filter1_d_95_2803" x="0" y="82" width="783" height="15" filterUnits="userSpaceOnUse" color-interpolation-filters="sRGB">
<feFlood flood-opacity="0" result="BackgroundImageFix"/>
<feColorMatrix in="SourceAlpha" type="matrix" values="0 0 0 0 0 0 0 0 0 0 0 0 0 0 0 0 0 0 127 0" result="hardAlpha"/>
<feOffset dy="4"/>
<feGaussianBlur stdDeviation="2"/>
<feComposite in2="hardAlpha" operator="out"/>
<feColorMatrix type="matrix" values="0 0 0 0 0 0 0 0 0 0 0 0 0 0 0 0 0 0 0.25 0"/>
<feBlend mode="normal" in2="BackgroundImageFix" result="effect1_dropShadow_95_2803"/>
<feBlend mode="normal" in="SourceGraphic" in2="effect1_dropShadow_95_2803" result="shape"/>
</filter>
</defs>
</svg>
