<svg width="364" height="331" viewBox="0 0 364 331" fill="none" xmlns="http://www.w3.org/2000/svg">
<path d="M157.048 20.1825C165.43 -3.25098 198.57 -3.25099 206.952 20.1825L231.589 89.0628C236.071 101.592 247.942 109.954 261.249 109.954H334.589C360.872 109.954 371.123 144.094 349.187 158.571L294.798 194.467C282.684 202.462 277.601 217.7 282.489 231.367L304.366 292.529C312.941 316.502 286.067 337.596 264.817 323.571L199.351 280.364C188.827 273.418 175.173 273.418 164.649 280.364L99.1832 323.571C77.933 337.596 51.0591 316.502 59.6341 292.529L81.5108 231.367C86.3991 217.7 81.3163 202.462 69.2024 194.467L14.8135 158.571C-7.12261 144.094 3.12769 109.954 29.4106 109.954H102.751C116.058 109.954 127.929 101.592 132.411 89.0628L157.048 20.1825Z" fill="url(#paint0_linear_18_546)" stroke="black" stroke-width="5"/>
<defs>
<linearGradient id="paint0_linear_18_546" x1="182" y1="-57" x2="182" y2="419" gradientUnits="userSpaceOnUse">
<stop stop-color="#496ADF"/>
<stop offset="1" stop-color="#000720"/>
</linearGradient>
</defs>
</svg>
